<?xml version="1.0" encoding="utf-8"?>
<!-- Generator: Adobe Illustrator 16.0.4, SVG Export Plug-In . SVG Version: 6.00 Build 0)  -->
<!DOCTYPE svg PUBLIC "-//W3C//DTD SVG 1.1//EN" "http://www.w3.org/Graphics/SVG/1.1/DTD/svg11.dtd">
<svg version="1.1" id="レイヤー_1" xmlns="http://www.w3.org/2000/svg" xmlns:xlink="http://www.w3.org/1999/xlink" x="0px"
	 y="0px" width="436px" height="69px" viewBox="0 0 436 69" enable-background="new 0 0 436 69" xml:space="preserve">
<g id="レイヤー_1_1_">
</g>
<g id="レイヤー_1のコピー">
</g>
<g id="レイヤー_2">
	<g>
		<rect x="0.5" y="0.5" fill="none" stroke="#FFFFFF" stroke-miterlimit="10" width="430" height="63"/>
		<polyline fill="none" stroke="#FFFFFF" stroke-miterlimit="10" points="430,5.5 435.5,5.5 435.5,68.5 5.5,68.5 5.5,64 		"/>
		<g enable-background="new    ">
			<path fill="#FFFFFF" d="M309.117,18.552h-11.008v29.842h-0.861V18.552h-11.051v-0.86h22.92V18.552z"/>
			<path fill="#FFFFFF" d="M282.586,33.129h-0.86c-0.144-2.064-0.86-3.662-2.149-4.795c-1.291-1.132-3.097-1.698-5.418-1.698
				c-1.463,0-2.623,0.193-3.483,0.58c-0.86,0.388-1.512,0.882-1.956,1.483c-0.445,0.603-0.725,1.262-0.839,1.979
				s-0.173,1.404-0.173,2.063c0,0.832,0.166,1.47,0.495,1.914c0.33,0.444,0.847,0.773,1.548,0.989
				c0.703,0.215,1.599,0.358,2.688,0.43c1.09,0.071,2.395,0.15,3.913,0.236c0.918,0.058,1.835,0.18,2.752,0.365
				c0.918,0.188,1.735,0.517,2.451,0.989c0.717,0.473,1.298,1.125,1.741,1.956c0.445,0.832,0.667,1.936,0.667,3.312
				c0,1.978-0.673,3.462-2.021,4.45c-1.348,0.989-3.14,1.483-5.375,1.483c-1.146,0-2.208-0.15-3.183-0.451
				c-0.974-0.301-1.842-0.71-2.602-1.226c-0.759-0.516-1.39-1.104-1.892-1.763s-0.867-1.348-1.097-2.064h-0.087v2.881
				c0,0.832-0.236,1.397-0.709,1.699c-0.473,0.301-1.024,0.451-1.655,0.451h-1.29v-0.86c0.287,0.029,0.596,0.051,0.924,0.064
				c0.33,0.016,0.639-0.014,0.926-0.086c0.286-0.071,0.516-0.207,0.688-0.408c0.172-0.2,0.258-0.516,0.258-0.946V32.097
				c0.029-1.204,0.244-2.207,0.645-3.01c0.402-0.803,0.933-1.455,1.592-1.957c0.66-0.501,1.426-0.853,2.301-1.054
				c0.874-0.2,1.799-0.301,2.773-0.301c1.375,0,2.572,0.187,3.59,0.56c1.018,0.372,1.878,0.889,2.58,1.548
				c0.703,0.659,1.24,1.44,1.613,2.344C282.313,31.129,282.529,32.097,282.586,33.129z M267.707,35.407v4.085
				c0,1.09,0.194,2.15,0.581,3.183c0.388,1.032,0.961,1.942,1.72,2.73c0.76,0.788,1.699,1.426,2.816,1.913
				c1.119,0.488,2.395,0.731,3.828,0.731c1.203,0,2.214-0.15,3.031-0.452c0.816-0.301,1.482-0.688,1.999-1.16
				c0.517-0.474,0.882-1.018,1.097-1.635c0.215-0.616,0.322-1.239,0.322-1.87c0-1.175-0.186-2.129-0.559-2.859
				c-0.373-0.731-0.875-1.305-1.506-1.72c-0.629-0.416-1.354-0.702-2.171-0.86c-0.817-0.157-1.655-0.265-2.516-0.322
				s-1.741-0.101-2.645-0.129s-1.741-0.101-2.515-0.216c-0.775-0.114-1.463-0.279-2.064-0.494s-1.047-0.522-1.333-0.925H267.707z"/>
			<path fill="#FFFFFF" d="M255.926,17.691v30.702h-0.859V17.691H255.926z"/>
			<path fill="#FFFFFF" d="M247.455,18.552h-11.008v29.842h-0.859V18.552h-11.051v-0.86h22.918V18.552z"/>
			<path fill="#FFFFFF" d="M222.043,37.343c0,1.52-0.215,2.975-0.646,4.364c-0.43,1.391-1.067,2.616-1.913,3.677
				s-1.885,1.906-3.118,2.537c-1.232,0.63-2.651,0.945-4.257,0.945c-1.634,0-3.067-0.315-4.3-0.945
				c-1.232-0.631-2.271-1.477-3.118-2.537c-0.845-1.061-1.483-2.286-1.913-3.677c-0.43-1.39-0.645-2.845-0.645-4.364
				s0.215-2.974,0.645-4.364c0.43-1.391,1.068-2.616,1.913-3.677c0.846-1.061,1.886-1.914,3.118-2.559
				c1.233-0.646,2.652-0.968,4.257-0.968c1.634,0,3.068,0.322,4.3,0.968c1.233,0.645,2.272,1.498,3.118,2.559
				s1.483,2.286,1.913,3.677C221.828,34.369,222.043,35.823,222.043,37.343z M221.183,37.343c0-1.376-0.193-2.709-0.581-3.999
				c-0.387-1.29-0.967-2.43-1.741-3.419c-0.774-0.988-1.727-1.784-2.859-2.386c-1.132-0.603-2.443-0.903-3.935-0.903
				c-1.462,0-2.758,0.301-3.891,0.903c-1.132,0.602-2.085,1.397-2.86,2.386c-0.774,0.989-1.354,2.129-1.741,3.419
				c-0.387,1.29-0.581,2.623-0.581,3.999c0,1.404,0.193,2.752,0.581,4.042c0.387,1.29,0.967,2.43,1.741,3.418
				c0.774,0.989,1.728,1.778,2.86,2.365c1.133,0.588,2.429,0.882,3.891,0.882c1.491,0,2.803-0.294,3.935-0.882
				c1.133-0.587,2.085-1.376,2.859-2.365c0.774-0.988,1.354-2.128,1.741-3.418C220.989,40.095,221.183,38.747,221.183,37.343z"/>
			<path fill="#FFFFFF" d="M191.771,48.394V33.988h-11.567c-1.777,0-3.196,0.18-4.257,0.538s-1.877,0.874-2.451,1.548
				c-0.573,0.674-0.953,1.505-1.14,2.494c-0.186,0.988-0.279,2.114-0.279,3.375c0,0.488-0.007,1.04-0.021,1.655
				c-0.014,0.617-0.043,1.226-0.086,1.828c-0.043,0.602-0.107,1.168-0.193,1.698c-0.086,0.531-0.2,0.953-0.344,1.269h-0.946
				c0.144-0.2,0.258-0.559,0.344-1.075c0.086-0.516,0.158-1.089,0.215-1.72c0.058-0.63,0.101-1.269,0.129-1.913
				c0.029-0.646,0.043-1.183,0.043-1.613c0-1.231,0.072-2.336,0.215-3.311c0.144-0.975,0.43-1.82,0.86-2.537
				c0.43-0.716,1.047-1.297,1.849-1.741c0.803-0.444,1.849-0.753,3.139-0.925v-0.086c-2.15-0.487-3.798-1.412-4.945-2.773
				c-1.146-1.361-1.691-3.074-1.634-5.139c0.058-2.694,0.832-4.68,2.322-5.955c1.491-1.275,3.842-1.914,7.052-1.914h12.556v30.702
				H191.771z M191.771,33.129V18.552H179.86c-2.924,0-5.031,0.609-6.321,1.827c-1.29,1.219-1.949,2.918-1.978,5.096
				c0,1.348,0.244,2.501,0.731,3.462c0.488,0.96,1.133,1.756,1.935,2.386c0.803,0.631,1.728,1.09,2.773,1.376
				c1.047,0.287,2.144,0.431,3.29,0.431H191.771z"/>
			<path fill="#FFFFFF" d="M138.709,17.691v19.265c0,3.697,0.846,6.507,2.537,8.428c1.692,1.921,4.315,2.881,7.869,2.881
				c3.555,0,6.178-0.96,7.869-2.881s2.537-4.73,2.537-8.428V17.691h0.86v19.265c0,4.128-0.96,7.181-2.881,9.158
				c-1.92,1.979-4.715,2.968-8.385,2.968c-3.669,0-6.464-0.989-8.385-2.968c-1.92-1.978-2.881-5.03-2.881-9.158V17.691H138.709z"/>
		</g>
	</g>
</g>
</svg>
